<svg id="visual" viewBox="0 0 900 170" width="900" height="170" xmlns="http://www.w3.org/2000/svg" xmlns:xlink="http://www.w3.org/1999/xlink" version="1.1"><rect x="0" y="0" width="900" height="170" fill="#f2f2f2"></rect><path d="M0 29L18.8 33.2C37.7 37.3 75.3 45.7 112.8 52C150.3 58.3 187.7 62.7 225.2 64.2C262.7 65.7 300.3 64.3 337.8 64.5C375.3 64.7 412.7 66.3 450.2 64.3C487.7 62.3 525.3 56.7 562.8 56.8C600.3 57 637.7 63 675.2 63.2C712.7 63.3 750.3 57.7 787.8 52.3C825.3 47 862.7 42 881.3 39.5L900 37L900 171L881.3 171C862.7 171 825.3 171 787.8 171C750.3 171 712.7 171 675.2 171C637.7 171 600.3 171 562.8 171C525.3 171 487.7 171 450.2 171C412.7 171 375.3 171 337.8 171C300.3 171 262.7 171 225.2 171C187.7 171 150.3 171 112.8 171C75.3 171 37.7 171 18.8 171L0 171Z" fill="#ffc411"></path><path d="M0 80L18.8 80.5C37.7 81 75.3 82 112.8 84.5C150.3 87 187.7 91 225.2 92.5C262.7 94 300.3 93 337.8 88.5C375.3 84 412.7 76 450.2 71.8C487.7 67.7 525.3 67.3 562.8 70.3C600.3 73.3 637.7 79.7 675.2 80C712.7 80.3 750.3 74.7 787.8 72.8C825.3 71 862.7 73 881.3 74L900 75L900 171L881.3 171C862.7 171 825.3 171 787.8 171C750.3 171 712.7 171 675.2 171C637.7 171 600.3 171 562.8 171C525.3 171 487.7 171 450.2 171C412.7 171 375.3 171 337.8 171C300.3 171 262.7 171 225.2 171C187.7 171 150.3 171 112.8 171C75.3 171 37.7 171 18.8 171L0 171Z" fill="#ff8831"></path><path d="M0 124L18.8 120.3C37.7 116.7 75.3 109.3 112.8 104C150.3 98.7 187.7 95.3 225.2 98.3C262.7 101.3 300.3 110.7 337.8 113.3C375.3 116 412.7 112 450.2 107.2C487.7 102.3 525.3 96.7 562.8 93.2C600.3 89.7 637.7 88.3 675.2 94.2C712.7 100 750.3 113 787.8 114.8C825.3 116.7 862.7 107.3 881.3 102.7L900 98L900 171L881.3 171C862.7 171 825.3 171 787.8 171C750.3 171 712.7 171 675.2 171C637.7 171 600.3 171 562.8 171C525.3 171 487.7 171 450.2 171C412.7 171 375.3 171 337.8 171C300.3 171 262.7 171 225.2 171C187.7 171 150.3 171 112.8 171C75.3 171 37.7 171 18.8 171L0 171Z" fill="#f14f50"></path><path d="M0 134L18.8 132.2C37.7 130.3 75.3 126.7 112.8 128.7C150.3 130.7 187.7 138.3 225.2 138.8C262.7 139.3 300.3 132.7 337.8 128.2C375.3 123.7 412.7 121.3 450.2 120.7C487.7 120 525.3 121 562.8 126.2C600.3 131.3 637.7 140.7 675.2 141.7C712.7 142.7 750.3 135.3 787.8 131.7C825.3 128 862.7 128 881.3 128L900 128L900 171L881.3 171C862.7 171 825.3 171 787.8 171C750.3 171 712.7 171 675.2 171C637.7 171 600.3 171 562.8 171C525.3 171 487.7 171 450.2 171C412.7 171 375.3 171 337.8 171C300.3 171 262.7 171 225.2 171C187.7 171 150.3 171 112.8 171C75.3 171 37.7 171 18.8 171L0 171Z" fill="#c62368"></path></svg>