<svg id="visual" viewBox="0 0 900 300" width="900" height="300" xmlns="http://www.w3.org/2000/svg" xmlns:xlink="http://www.w3.org/1999/xlink" version="1.1"><rect x="0" y="0" width="900" height="300" fill="#f2f2f2"></rect><path d="M0 175L18.8 178.7C37.7 182.3 75.3 189.7 112.8 195.3C150.3 201 187.7 205 225.2 206.3C262.7 207.7 300.3 206.3 337.8 206.5C375.3 206.7 412.7 208.3 450.2 206.7C487.7 205 525.3 200 562.8 200.2C600.3 200.3 637.7 205.7 675.2 205.8C712.7 206 750.3 201 787.8 196.3C825.3 191.7 862.7 187.3 881.3 185.2L900 183L900 301L881.3 301C862.7 301 825.3 301 787.8 301C750.3 301 712.7 301 675.2 301C637.7 301 600.3 301 562.8 301C525.3 301 487.7 301 450.2 301C412.7 301 375.3 301 337.8 301C300.3 301 262.7 301 225.2 301C187.7 301 150.3 301 112.8 301C75.3 301 37.7 301 18.8 301L0 301Z" fill="#ffc411"></path><path d="M0 221L18.8 221.3C37.7 221.7 75.3 222.3 112.8 224.3C150.3 226.3 187.7 229.7 225.2 231C262.7 232.3 300.3 231.7 337.8 227.8C375.3 224 412.7 217 450.2 213.3C487.7 209.7 525.3 209.3 562.8 212C600.3 214.7 637.7 220.3 675.2 220.7C712.7 221 750.3 216 787.8 214.3C825.3 212.7 862.7 214.3 881.3 215.2L900 216L900 301L881.3 301C862.7 301 825.3 301 787.8 301C750.3 301 712.7 301 675.2 301C637.7 301 600.3 301 562.8 301C525.3 301 487.7 301 450.2 301C412.7 301 375.3 301 337.8 301C300.3 301 262.7 301 225.2 301C187.7 301 150.3 301 112.8 301C75.3 301 37.7 301 18.8 301L0 301Z" fill="#ff8831"></path><path d="M0 259L18.8 255.8C37.7 252.7 75.3 246.3 112.8 241.7C150.3 237 187.7 234 225.2 236.5C262.7 239 300.3 247 337.8 249.5C375.3 252 412.7 249 450.2 245C487.7 241 525.3 236 562.8 232.8C600.3 229.7 637.7 228.3 675.2 233.3C712.7 238.3 750.3 249.7 787.8 251.2C825.3 252.7 862.7 244.3 881.3 240.2L900 236L900 301L881.3 301C862.7 301 825.3 301 787.8 301C750.3 301 712.7 301 675.2 301C637.7 301 600.3 301 562.8 301C525.3 301 487.7 301 450.2 301C412.7 301 375.3 301 337.8 301C300.3 301 262.7 301 225.2 301C187.7 301 150.3 301 112.8 301C75.3 301 37.7 301 18.8 301L0 301Z" fill="#f14f50"></path><path d="M0 268L18.8 266.3C37.7 264.7 75.3 261.3 112.8 263C150.3 264.7 187.7 271.3 225.2 271.8C262.7 272.3 300.3 266.7 337.8 262.8C375.3 259 412.7 257 450.2 256.3C487.7 255.7 525.3 256.3 562.8 260.8C600.3 265.3 637.7 273.7 675.2 274.7C712.7 275.7 750.3 269.3 787.8 266.2C825.3 263 862.7 263 881.3 263L900 263L900 301L881.3 301C862.7 301 825.3 301 787.8 301C750.3 301 712.7 301 675.2 301C637.7 301 600.3 301 562.8 301C525.3 301 487.7 301 450.2 301C412.7 301 375.3 301 337.8 301C300.3 301 262.7 301 225.2 301C187.7 301 150.3 301 112.8 301C75.3 301 37.7 301 18.8 301L0 301Z" fill="#c62368"></path></svg>