<svg id="visual" viewBox="0 0 900 200" width="900" height="200" xmlns="http://www.w3.org/2000/svg" xmlns:xlink="http://www.w3.org/1999/xlink" version="1.1"><rect x="0" y="0" width="900" height="200" fill="#f2f2f2"></rect><path d="M0 34L18.8 39C37.7 44 75.3 54 112.8 61.5C150.3 69 187.7 74 225.2 75.7C262.7 77.3 300.3 75.7 337.8 75.8C375.3 76 412.7 78 450.2 75.7C487.7 73.3 525.3 66.7 562.8 67C600.3 67.3 637.7 74.7 675.2 75C712.7 75.3 750.3 68.7 787.8 62.3C825.3 56 862.7 50 881.3 47L900 44L900 201L881.3 201C862.7 201 825.3 201 787.8 201C750.3 201 712.7 201 675.2 201C637.7 201 600.3 201 562.8 201C525.3 201 487.7 201 450.2 201C412.7 201 375.3 201 337.8 201C300.3 201 262.7 201 225.2 201C187.7 201 150.3 201 112.8 201C75.3 201 37.7 201 18.8 201L0 201Z" fill="#ffc411"></path><path d="M0 95L18.8 95.3C37.7 95.7 75.3 96.3 112.8 99C150.3 101.7 187.7 106.3 225.2 108.3C262.7 110.3 300.3 109.7 337.8 104.5C375.3 99.3 412.7 89.7 450.2 84.7C487.7 79.7 525.3 79.3 562.8 82.8C600.3 86.3 637.7 93.7 675.2 94.2C712.7 94.7 750.3 88.3 787.8 86.2C825.3 84 862.7 86 881.3 87L900 88L900 201L881.3 201C862.7 201 825.3 201 787.8 201C750.3 201 712.7 201 675.2 201C637.7 201 600.3 201 562.8 201C525.3 201 487.7 201 450.2 201C412.7 201 375.3 201 337.8 201C300.3 201 262.7 201 225.2 201C187.7 201 150.3 201 112.8 201C75.3 201 37.7 201 18.8 201L0 201Z" fill="#ff8831"></path><path d="M0 146L18.8 141.7C37.7 137.3 75.3 128.7 112.8 122.5C150.3 116.3 187.7 112.7 225.2 116.2C262.7 119.7 300.3 130.3 337.8 133.5C375.3 136.7 412.7 132.3 450.2 126.8C487.7 121.3 525.3 114.7 562.8 110.5C600.3 106.3 637.7 104.7 675.2 111.3C712.7 118 750.3 133 787.8 135.2C825.3 137.3 862.7 126.7 881.3 121.3L900 116L900 201L881.3 201C862.7 201 825.3 201 787.8 201C750.3 201 712.7 201 675.2 201C637.7 201 600.3 201 562.8 201C525.3 201 487.7 201 450.2 201C412.7 201 375.3 201 337.8 201C300.3 201 262.7 201 225.2 201C187.7 201 150.3 201 112.8 201C75.3 201 37.7 201 18.8 201L0 201Z" fill="#f14f50"></path><path d="M0 158L18.8 155.8C37.7 153.7 75.3 149.3 112.8 151.7C150.3 154 187.7 163 225.2 163.7C262.7 164.3 300.3 156.7 337.8 151.3C375.3 146 412.7 143 450.2 142.2C487.7 141.3 525.3 142.7 562.8 148.7C600.3 154.7 637.7 165.3 675.2 166.5C712.7 167.7 750.3 159.3 787.8 155.2C825.3 151 862.7 151 881.3 151L900 151L900 201L881.3 201C862.7 201 825.3 201 787.8 201C750.3 201 712.7 201 675.2 201C637.7 201 600.3 201 562.8 201C525.3 201 487.7 201 450.2 201C412.7 201 375.3 201 337.8 201C300.3 201 262.7 201 225.2 201C187.7 201 150.3 201 112.8 201C75.3 201 37.7 201 18.8 201L0 201Z" fill="#c62368"></path></svg>