<svg id="visual" viewBox="0 0 900 130" width="900" height="130" xmlns="http://www.w3.org/2000/svg" xmlns:xlink="http://www.w3.org/1999/xlink" version="1.1"><rect x="0" y="0" width="900" height="130" fill="#f2f2f2"></rect><path d="M0 22L18.8 25.2C37.7 28.3 75.3 34.7 112.8 39.5C150.3 44.3 187.7 47.7 225.2 48.8C262.7 50 300.3 49 337.8 49.2C375.3 49.3 412.7 50.7 450.2 49.2C487.7 47.7 525.3 43.3 562.8 43.5C600.3 43.7 637.7 48.3 675.2 48.5C712.7 48.7 750.3 44.3 787.8 40.2C825.3 36 862.7 32 881.3 30L900 28L900 131L881.3 131C862.7 131 825.3 131 787.8 131C750.3 131 712.7 131 675.2 131C637.7 131 600.3 131 562.8 131C525.3 131 487.7 131 450.2 131C412.7 131 375.3 131 337.8 131C300.3 131 262.7 131 225.2 131C187.7 131 150.3 131 112.8 131C75.3 131 37.7 131 18.8 131L0 131Z" fill="#ffc411"></path><path d="M0 61L18.8 61.3C37.7 61.7 75.3 62.3 112.8 64.2C150.3 66 187.7 69 225.2 70.2C262.7 71.3 300.3 70.7 337.8 67.3C375.3 64 412.7 58 450.2 54.8C487.7 51.7 525.3 51.3 562.8 53.5C600.3 55.7 637.7 60.3 675.2 60.7C712.7 61 750.3 57 787.8 55.7C825.3 54.3 862.7 55.7 881.3 56.3L900 57L900 131L881.3 131C862.7 131 825.3 131 787.8 131C750.3 131 712.7 131 675.2 131C637.7 131 600.3 131 562.8 131C525.3 131 487.7 131 450.2 131C412.7 131 375.3 131 337.8 131C300.3 131 262.7 131 225.2 131C187.7 131 150.3 131 112.8 131C75.3 131 37.7 131 18.8 131L0 131Z" fill="#ff8831"></path><path d="M0 95L18.8 92.2C37.7 89.3 75.3 83.7 112.8 79.5C150.3 75.3 187.7 72.7 225.2 74.8C262.7 77 300.3 84 337.8 86.2C375.3 88.3 412.7 85.7 450.2 82.2C487.7 78.7 525.3 74.3 562.8 71.7C600.3 69 637.7 68 675.2 72.3C712.7 76.7 750.3 86.3 787.8 87.7C825.3 89 862.7 82 881.3 78.5L900 75L900 131L881.3 131C862.7 131 825.3 131 787.8 131C750.3 131 712.7 131 675.2 131C637.7 131 600.3 131 562.8 131C525.3 131 487.7 131 450.2 131C412.7 131 375.3 131 337.8 131C300.3 131 262.7 131 225.2 131C187.7 131 150.3 131 112.8 131C75.3 131 37.7 131 18.8 131L0 131Z" fill="#f14f50"></path><path d="M0 102L18.8 100.7C37.7 99.3 75.3 96.7 112.8 98.2C150.3 99.7 187.7 105.3 225.2 105.7C262.7 106 300.3 101 337.8 97.7C375.3 94.3 412.7 92.7 450.2 92.2C487.7 91.7 525.3 92.3 562.8 96.2C600.3 100 637.7 107 675.2 107.8C712.7 108.7 750.3 103.3 787.8 100.7C825.3 98 862.7 98 881.3 98L900 98L900 131L881.3 131C862.7 131 825.3 131 787.8 131C750.3 131 712.7 131 675.2 131C637.7 131 600.3 131 562.8 131C525.3 131 487.7 131 450.2 131C412.7 131 375.3 131 337.8 131C300.3 131 262.7 131 225.2 131C187.7 131 150.3 131 112.8 131C75.3 131 37.7 131 18.8 131L0 131Z" fill="#c62368"></path></svg>